HIERARCHY
ROOT Hips
{
 OFFSET 0.000000 0.000000 0.000000
 CHANNELS 6 Xposition Yposition Zposition Yrotation Xrotation Zrotation
 JOINT Chest
 {
  OFFSET 0.000000 9.585900 0.002600
  CHANNELS 3 Yrotation Xrotation Zrotation
  JOINT Chest2
  {
   OFFSET 0.000000 9.601200 -0.005300
   CHANNELS 3 Yrotation Xrotation Zrotation
   JOINT Chest3
   {
    OFFSET 0.000000 9.561800 0.000000
    CHANNELS 3 Yrotation Xrotation Zrotation
    JOINT Chest4
    {
     OFFSET 0.000000 9.552100 0.000000
     CHANNELS 3 Yrotation Xrotation Zrotation
     JOINT Neck
     {
      OFFSET 0.000000 14.453000 0.000000
      CHANNELS 3 Yrotation Xrotation Zrotation
      JOINT Head
      {
       OFFSET 0.000000 8.936500 -0.011300
       CHANNELS 3 Yrotation Xrotation Zrotation
       End Site
       {
        OFFSET 0.000000 17.073600 -0.006000
       }
      }
     }
     JOINT RightCollar
     {
      OFFSET -2.921100 9.558500 0.000000
      CHANNELS 3 Yrotation Xrotation Zrotation
      JOINT RightShoulder
      {
       OFFSET -13.519700 0.000000 0.000000
       CHANNELS 3 Yrotation Xrotation Zrotation
       JOINT RightElbow
       {
        OFFSET 0.000000 -29.696600 0.000000
        CHANNELS 3 Yrotation Xrotation Zrotation
        JOINT RightWrist
        {
         OFFSET 0.000000 -24.004700 0.000000
         CHANNELS 3 Yrotation Xrotation Zrotation
         End Site
         {
          OFFSET 0.000000 -17.728500 0.000000
         }
        }
       }
      }
     }
     JOINT LeftCollar
     {
      OFFSET 2.921100 9.558500 0.000000
      CHANNELS 3 Yrotation Xrotation Zrotation
      JOINT LeftShoulder
      {
       OFFSET 13.519700 0.000000 0.000000
       CHANNELS 3 Yrotation Xrotation Zrotation
       JOINT LeftElbow
       {
        OFFSET 0.000000 -29.696600 0.000000
        CHANNELS 3 Yrotation Xrotation Zrotation
        JOINT LeftWrist
        {
         OFFSET 0.000000 -24.004700 0.000000
         CHANNELS 3 Yrotation Xrotation Zrotation
         End Site
         {
          OFFSET 0.000000 -17.728500 0.000000
         }
        }
       }
      }
     }
    }
   }
  }
 }
 JOINT RightHip
 {
  OFFSET -7.771700 -0.012900 -0.001300
  CHANNELS 3 Yrotation Xrotation Zrotation
  JOINT RightKnee
  {
   OFFSET 0.000000 -40.869800 0.001200
   CHANNELS 3 Yrotation Xrotation Zrotation
   JOINT RightAnkle
   {
    OFFSET 0.000000 -39.717900 0.002100
    CHANNELS 3 Yrotation Xrotation Zrotation
    JOINT RightToe
    {
     OFFSET 0.000000 -4.965400 11.033500
     CHANNELS 3 Yrotation Xrotation Zrotation
     End Site
     {
      OFFSET 0.000000 -1.423100 5.872300
     }
    }
   }
  }
 }
 JOINT LeftHip
 {
  OFFSET 7.771700 -0.012900 -0.001300
  CHANNELS 3 Yrotation Xrotation Zrotation
  JOINT LeftKnee
  {
   OFFSET 0.000000 -40.869800 0.001200
   CHANNELS 3 Yrotation Xrotation Zrotation
   JOINT LeftAnkle
   {
    OFFSET 0.000000 -39.717900 0.002100
    CHANNELS 3 Yrotation Xrotation Zrotation
    JOINT LeftToe
    {
     OFFSET 0.000000 -4.965400 11.033500
     CHANNELS 3 Yrotation Xrotation Zrotation
     End Site
     {
      OFFSET 0.000000 -1.423100 5.872300
     }
    }
   }
  }
 }
}
MOTION
Frames: 11
Frame Time: 0.008333
-53.917219 57.616776 14.595008 163.003333 -6.589818 1.636911 2.304726 5.839139 1.064863 0.068942 0.198761 -0.007075 0.130280 0.403667 0.024299 1.859507 5.604051 0.222768 2.036042 17.815631 -1.639405 4.313800 -2.629971 -3.699987 2.335015 9.218342 -0.558063 -11.130651 -12.230069 -3.947860 -100.411944 -76.945811 119.311733 -3.218146 9.694006 -23.784942 -4.963573 8.620419 -2.086899 19.542601 -8.636684 -0.688311 62.678626 -69.710887 -80.433325 3.130805 -0.663739 3.398753 -15.615005 -65.593403 6.155432 -37.102221 72.429671 -38.036138 -3.826699 -8.220494 -1.908233 -0.190475 0.994063 -0.085102 2.392236 -67.842380 11.431370 39.919600 65.378202 32.637306 -17.443725 -9.910679 5.138635 -0.398650 -1.030804 -0.195341
-53.918930 57.616619 14.592455 163.002917 -6.606635 1.630417 2.302524 5.836828 1.058951 0.066629 0.200161 -0.006985 0.131006 0.399766 0.023120 1.844597 5.595848 0.213368 2.030491 17.832753 -1.628569 4.321197 -2.607766 -3.687498 2.354495 9.211607 -0.545334 -11.119864 -12.237996 -3.936953 -100.680168 -76.934303 119.566285 -3.237277 9.729574 -23.856795 -4.989267 8.624657 -2.113495 19.531913 -8.628842 -0.719756 62.981901 -69.743602 -80.647632 3.120319 -0.654283 3.396545 -15.617760 -65.577162 6.158247 -37.115863 72.430623 -38.047153 -3.831939 -8.216354 -1.906651 -0.197662 0.988594 -0.087864 2.376124 -67.825202 11.453450 39.922360 65.389161 32.640835 -17.461890 -9.971460 5.150009 -0.369586 -1.026465 -0.191053
-53.921104 57.616653 14.588277 162.986902 -6.631248 1.630296 2.315410 5.845257 1.048975 0.063214 0.204837 -0.003456 0.121707 0.375557 0.005974 1.841248 5.602574 0.217666 2.025552 17.848209 -1.618064 4.306835 -2.574526 -3.664052 2.377125 9.227920 -0.526578 -11.116560 -12.237283 -3.934445 -100.986385 -76.923125 119.865767 -3.260494 9.774365 -23.896389 -5.054522 8.615149 -2.163044 19.584311 -8.612566 -0.694078 63.299379 -69.744508 -80.909078 3.113008 -0.643758 3.399979 -15.588294 -65.554915 6.142959 -37.118930 72.432344 -38.052316 -3.825897 -8.209905 -1.903477 -0.203239 0.983229 -0.089006 2.389824 -67.801566 11.459295 39.958024 65.403332 32.666339 -17.449502 -10.020363 5.178999 -0.372016 -1.040548 -0.197524
-53.922676 57.616211 14.587619 162.984362 -6.636941 1.618255 2.309440 5.836797 1.049123 0.070062 0.214975 0.005093 0.114780 0.362941 -0.004365 1.833786 5.591544 0.207599 2.035108 17.868038 -1.600175 4.233326 -2.540639 -3.627353 2.389500 9.213535 -0.519188 -11.103306 -12.242120 -3.925668 -101.126552 -76.925816 119.993935 -3.288008 9.814335 -23.935140 -5.094561 8.616580 -2.184117 19.611652 -8.598316 -0.695480 63.597806 -69.750555 -81.151700 3.107999 -0.634162 3.413040 -15.599067 -65.547440 6.155997 -37.116134 72.434517 -38.046667 -3.811125 -8.204876 -1.898402 -0.221446 0.978826 -0.095398 2.367604 -67.794558 11.489386 39.962567 65.403521 32.663676 -17.433996 -10.050204 5.191382 -0.372785 -1.052073 -0.194597
-53.925896 57.615648 14.587173 162.985234 -6.638965 1.614443 2.300560 5.824566 1.040525 0.069762 0.214094 0.004615 0.113826 0.363129 -0.008139 1.827896 5.581324 0.196925 2.045671 17.885814 -1.579273 4.202468 -2.525481 -3.608151 2.396662 9.168444 -0.522152 -11.084878 -12.216950 -3.920177 -101.254982 -76.923665 120.107716 -3.302108 9.822134 -23.994391 -5.120028 8.623938 -2.190814 19.551455 -8.571618 -0.798595 63.869364 -69.856854 -81.287562 3.103961 -0.625922 3.427810 -15.600177 -65.543045 6.155740 -37.106786 72.433751 -38.034546 -3.807743 -8.210928 -1.898749 -0.221110 0.985534 -0.096331 2.345626 -67.790493 11.508102 39.973500 65.397219 32.664373 -17.420322 -10.046173 5.189719 -0.368286 -1.077450 -0.183518
-53.930209 57.615071 14.586077 162.983965 -6.643574 1.618286 2.284255 5.806226 1.002818 0.069066 0.212345 0.003825 0.121980 0.374662 0.006986 1.823964 5.571084 0.186418 2.038188 17.895179 -1.564872 4.198378 -2.507851 -3.589035 2.413968 9.180699 -0.497651 -11.080328 -12.251548 -3.926497 -101.224349 -76.923991 120.069370 -3.261876 9.747066 -24.074676 -5.123325 8.640412 -2.179907 19.509108 -8.553678 -0.876717 64.141560 -69.920019 -81.467905 3.099789 -0.613368 3.447241 -15.588476 -65.542720 6.142311 -37.103815 72.437618 -38.030966 -3.810038 -8.207841 -1.899966 -0.220023 0.982658 -0.096280 2.337642 -67.785019 11.512651 39.984656 65.393238 32.667492 -17.418813 -10.022636 5.175574 -0.360181 -1.104942 -0.165942
-53.933778 57.614054 14.588275 162.980006 -6.631678 1.612791 2.284931 5.788813 0.999119 0.068978 0.211911 0.003643 0.121769 0.373944 0.006661 1.819892 5.559884 0.174915 2.022178 17.901006 -1.562650 4.217090 -2.496468 -3.574292 2.418505 9.162741 -0.494049 -11.084167 -12.300106 -3.931439 -101.006119 -76.925363 119.853355 -3.249961 9.728058 -24.111577 -5.132311 8.651123 -2.176103 19.505925 -8.544059 -0.898708 64.431006 -69.922112 -81.714816 3.093609 -0.596239 3.476443 -15.601942 -65.552209 6.160495 -37.076594 72.436306 -38.006028 -3.800732 -8.203682 -1.893282 -0.235795 0.985545 -0.104274 2.305400 -67.796332 11.557510 39.992798 65.386982 32.659268 -17.449107 -9.983524 5.153443 -0.353840 -1.149310 -0.138453
-53.938494 57.612905 14.591392 162.991834 -6.614496 1.610887 2.270849 5.765528 0.990614 0.068889 0.211485 0.003520 0.121527 0.373198 0.006343 1.821111 5.560553 0.177195 1.967426 17.880618 -1.588196 4.228583 -2.466836 -3.540309 2.387523 9.109714 -0.519031 -11.068394 -12.277402 -3.926794 -101.154202 -76.915416 120.001241 -3.253025 9.745821 -24.146657 -5.176828 8.647148 -2.197981 19.510271 -8.523834 -0.963148 64.707454 -69.975343 -81.933546 3.084112 -0.578812 3.509197 -15.615599 -65.576229 6.173928 -37.101200 72.434252 -38.032645 -3.816560 -8.185691 -1.891898 -0.224192 0.972291 -0.100861 2.288585 -67.813531 11.566759 40.005634 65.369682 32.660297 -17.476424 -9.937743 5.131435 -0.355054 -1.181938 -0.117564
-53.943522 57.611273 14.599206 163.030595 -6.572156 1.599786 2.222081 5.711138 0.976370 0.057077 0.202933 -0.013493 0.132798 0.379207 0.022090 1.818783 5.548828 0.165512 1.960023 17.893253 -1.573090 4.215171 -2.453244 -3.514351 2.385579 9.103420 -0.504114 -11.065833 -12.285568 -3.932921 -101.266582 -76.906200 120.127728 -3.258921 9.754055 -24.181995 -5.204688 8.666060 -2.194377 19.527986 -8.498385 -1.032896 64.988756 -70.030300 -82.172571 3.072523 -0.563318 3.537399 -15.690885 -65.618464 6.219004 -37.094102 72.432627 -38.030715 -3.809968 -8.177782 -1.887658 -0.236517 0.970251 -0.103411 2.281825 -67.860029 11.554760 39.985490 65.346520 32.629792 -17.515349 -9.885939 5.131310 -0.350113 -1.194354 -0.110227
-53.947013 57.610506 14.600688 163.036523 -6.569661 1.594721 2.206275 5.701783 0.963971 0.057669 0.203738 -0.010831 0.131052 0.376027 0.018283 1.786010 5.522495 0.126428 2.005199 17.921574 -1.526021 4.186985 -2.445743 -3.493355 2.414265 9.108727 -0.466597 -11.057503 -12.285505 -3.937655 -101.406677 -76.899189 120.279574 -3.265378 9.756761 -24.202704 -5.202028 8.703184 -2.168957 19.562514 -8.478291 -1.088142 65.285762 -70.073360 -82.443492 3.061138 -0.551229 3.557020 -15.707952 -65.621352 6.232809 -37.090998 72.431929 -38.029520 -3.811115 -8.174648 -1.888566 -0.239118 0.969879 -0.102976 2.307409 -67.866134 11.530160 39.977020 65.340762 32.630396 -17.530019 -9.870819 5.122306 -0.310952 -1.168730 -0.110826
-53.950516 57.609910 14.602315 163.045035 -6.567604 1.588990 2.184617 5.692176 0.949723 0.067772 0.209083 0.002254 0.108699 0.361417 -0.012180 1.795708 5.525617 0.139959 2.012902 17.928921 -1.513687 4.160790 -2.437665 -3.479213 2.409674 9.096611 -0.463220 -11.037467 -12.269268 -3.933506 -101.631032 -76.901288 120.509115 -3.278840 9.755943 -24.216573 -5.256783 8.716119 -2.190634 19.630071 -8.476172 -1.095538 65.601638 -70.084341 -82.739074 3.036742 -0.492991 3.567829 -15.728070 -65.622732 6.246542 -37.088466 72.431122 -38.028793 -3.808245 -8.173600 -1.887336 -0.242790 0.971019 -0.104785 2.331887 -67.873459 11.497944 39.982904 65.332304 32.648981 -17.527695 -9.860861 5.111203 -0.316558 -1.170437 -0.100616
